<svg fill="rgb(30, 56, 109)" height="316" viewBox="0 0 686 316" width="686" xmlns="http://www.w3.org/2000/svg"><g fill="rgb(30, 56, 109)"><path d="m408.86 308.87 35.6-110.58c.63-1.95-.08-4.09-1.76-5.27l-88.87-62.77c-3.74-2.64-1.87-8.52 2.71-8.52h110.77c2.59 0 4.88-1.65 5.71-4.09l40.1-113.54001c1.84-5.45 9.54-5.47 11.41-.03l40.75 113.59001c.84 2.43 3.13 4.07 5.7 4.07h110.16c4.57 0 6.44 5.87 2.72 8.51l-88.28 62.79c-1.66 1.18-2.37 3.3-1.75 5.24l34.99 110.68c1.32 4.18-3.3 7.72-6.99 5.37l-100.51-64.02c-1.54-.98-3.5-.98-5.04 0l-100.42 63.96c-3.71 2.36-8.33-1.21-6.99-5.39"></path><path d="m204.82 3.94995h92.36v307.18005h-59.81v-207.78c0-5.97.07-14.3401.21-25.11.14-10.7601.21-19.07.21-24.91l-58.21 257.8h-62.38l-57.81-257.79c0 5.84.07 14.14.21 24.91s.21 19.14.21 25.11v207.78h-59.81v-307.19005h93.4l55.92 241.54005z"></path></g></svg>
